<svg width="2162" height="652" viewBox="0 0 2162 652" fill="none" xmlns="http://www.w3.org/2000/svg">
<path d="M752.164 378.414C752.164 368.388 748.583 360.576 741.422 354.977C734.391 349.378 721.956 343.583 704.117 337.594C686.279 331.604 671.695 325.81 660.367 320.211C623.518 302.112 605.094 277.242 605.094 245.602C605.094 229.846 609.651 215.979 618.766 204C628.01 191.891 641.031 182.516 657.828 175.875C674.625 169.104 693.505 165.719 714.469 165.719C734.911 165.719 753.206 169.365 769.352 176.656C785.628 183.948 798.258 194.365 807.242 207.906C816.227 221.318 820.719 236.682 820.719 254H752.359C752.359 242.411 748.779 233.427 741.617 227.047C734.586 220.667 725.016 217.477 712.906 217.477C700.667 217.477 690.966 220.211 683.805 225.68C676.773 231.018 673.258 237.854 673.258 246.188C673.258 253.479 677.164 260.12 684.977 266.109C692.789 271.969 706.526 278.089 726.188 284.469C745.849 290.719 761.995 297.49 774.625 304.781C805.354 322.49 820.719 346.904 820.719 378.023C820.719 402.893 811.344 422.424 792.594 436.617C773.844 450.81 748.128 457.906 715.445 457.906C692.398 457.906 671.5 453.805 652.75 445.602C634.13 437.268 620.068 425.94 610.562 411.617C601.188 397.164 596.5 380.562 596.5 361.812H665.25C665.25 377.047 669.156 388.31 676.969 395.602C684.911 402.763 697.737 406.344 715.445 406.344C726.773 406.344 735.693 403.935 742.203 399.117C748.844 394.169 752.164 387.268 752.164 378.414ZM944.922 454H876.562V169.625H944.922V454ZM1077.13 357.516V454H1008.58V169.625H1122.05C1143.8 169.625 1163.01 173.661 1179.67 181.734C1196.47 189.677 1209.42 201.07 1218.54 215.914C1227.78 230.628 1232.41 247.359 1232.41 266.109C1232.41 293.844 1222.45 316.044 1202.52 332.711C1182.73 349.247 1155.52 357.516 1120.88 357.516H1077.13ZM1077.13 304.586H1122.05C1135.34 304.586 1145.43 301.266 1152.33 294.625C1159.36 287.984 1162.88 278.609 1162.88 266.5C1162.88 253.219 1159.29 242.607 1152.13 234.664C1144.97 226.721 1135.21 222.685 1122.84 222.555H1077.13V304.586ZM1461.49 333.492H1353.68V401.266H1481.02V454H1285.12V169.625H1481.41V222.555H1353.68V282.516H1461.49V333.492ZM1621.63 348.141L1593.51 379V454H1524.95V169.625H1593.51V295.016L1617.34 258.883L1678.66 169.625H1763.43L1667.34 295.406L1763.43 454H1682.18L1621.63 348.141ZM1958.34 400.875H1864.39L1847.98 454H1774.74L1879.04 169.625H1943.49L2048.57 454H1974.94L1958.34 400.875ZM1880.8 347.945H1941.93L1911.27 249.312L1880.8 347.945Z" fill="black"/>
<path d="M618.945 539.589C618.945 536.792 617.963 534.585 615.999 532.967C614.034 531.326 610.44 529.778 605.217 528.322C599.993 526.843 596.18 525.236 593.776 523.503C590.356 521.053 588.646 517.84 588.646 513.865C588.646 510.006 590.229 506.874 593.395 504.47C596.584 502.043 600.652 500.83 605.598 500.83C608.949 500.83 611.942 501.477 614.577 502.771C617.235 504.066 619.292 505.868 620.748 508.18C622.204 510.491 622.932 513.068 622.932 515.911H618.633C618.633 512.467 617.455 509.705 615.097 507.625C612.74 505.522 609.573 504.47 605.598 504.47C601.738 504.47 598.665 505.337 596.376 507.07C594.088 508.781 592.944 511.022 592.944 513.796C592.944 516.361 593.973 518.453 596.03 520.071C598.087 521.689 601.38 523.122 605.91 524.37C610.44 525.595 613.872 526.877 616.207 528.218C618.541 529.535 620.297 531.118 621.476 532.967C622.655 534.816 623.244 537 623.244 539.52C623.244 543.495 621.649 546.684 618.46 549.088C615.294 551.492 611.11 552.693 605.91 552.693C602.351 552.693 599.081 552.058 596.099 550.787C593.141 549.515 590.887 547.736 589.339 545.448C587.813 543.16 587.051 540.536 587.051 537.578H591.315C591.315 541.137 592.644 543.945 595.302 546.002C597.96 548.059 601.496 549.088 605.91 549.088C609.839 549.088 612.994 548.221 615.375 546.488C617.755 544.754 618.945 542.455 618.945 539.589ZM637.666 552H633.402V501.523H637.666V552ZM679.961 539.589C679.961 536.792 678.979 534.585 677.014 532.967C675.05 531.326 671.456 529.778 666.232 528.322C661.009 526.843 657.196 525.236 654.792 523.503C651.371 521.053 649.661 517.84 649.661 513.865C649.661 510.006 651.244 506.874 654.411 504.47C657.6 502.043 661.668 500.83 666.614 500.83C669.965 500.83 672.958 501.477 675.593 502.771C678.251 504.066 680.308 505.868 681.764 508.18C683.22 510.491 683.948 513.068 683.948 515.911H679.649C679.649 512.467 678.47 509.705 676.113 507.625C673.755 505.522 670.589 504.47 666.614 504.47C662.754 504.47 659.68 505.337 657.392 507.07C655.104 508.781 653.96 511.022 653.96 513.796C653.96 516.361 654.988 518.453 657.045 520.071C659.102 521.689 662.396 523.122 666.926 524.37C671.456 525.595 674.888 526.877 677.222 528.218C679.556 529.535 681.313 531.118 682.492 532.967C683.67 534.816 684.26 537 684.26 539.52C684.26 543.495 682.665 546.684 679.476 549.088C676.309 551.492 672.126 552.693 666.926 552.693C663.367 552.693 660.096 552.058 657.115 550.787C654.156 549.515 651.903 547.736 650.354 545.448C648.829 543.16 648.066 540.536 648.066 537.578H652.331C652.331 541.137 653.66 543.945 656.317 546.002C658.975 548.059 662.511 549.088 666.926 549.088C670.855 549.088 674.01 548.221 676.39 546.488C678.771 544.754 679.961 542.455 679.961 539.589ZM727.733 505.164H710.434V552H706.17V505.164H688.905V501.523H727.733V505.164ZM763.788 527.802H740.179V548.395H767.324V552H735.915V501.523H767.151V505.164H740.179V524.196H763.788V527.802ZM781.989 501.523L800.605 546.072L819.292 501.523H824.977V552H820.713V530.021L821.06 507.486L802.27 552H798.976L780.255 507.66L780.602 529.882V552H776.338V501.523H781.989ZM860.234 552H855.97V501.523H860.234V552ZM911.543 552H907.279L878.262 508.804V552H873.963V501.523H878.262L907.313 544.754V501.523H911.543V552ZM952.174 528.426H928.634V552H924.37V501.523H955.641V505.164H928.634V524.786H952.174V528.426ZM1001.61 529.5C1001.61 534.146 1000.8 538.225 999.184 541.738C997.589 545.251 995.301 547.955 992.319 549.851C989.338 551.746 985.894 552.693 981.988 552.693C976.095 552.693 971.334 550.59 967.705 546.384C964.076 542.154 962.262 536.457 962.262 529.292V524.092C962.262 519.493 963.071 515.425 964.689 511.889C966.33 508.33 968.641 505.603 971.623 503.708C974.604 501.789 978.036 500.83 981.919 500.83C985.802 500.83 989.222 501.766 992.181 503.638C995.162 505.51 997.462 508.157 999.08 511.577C1000.7 514.998 1001.54 518.961 1001.61 523.468V529.5ZM997.346 524.023C997.346 517.944 995.971 513.183 993.221 509.74C990.47 506.296 986.703 504.574 981.919 504.574C977.227 504.574 973.483 506.308 970.687 509.774C967.913 513.218 966.526 518.037 966.526 524.231V529.5C966.526 535.486 967.913 540.236 970.687 543.749C973.46 547.239 977.227 548.984 981.988 548.984C986.819 548.984 990.586 547.262 993.29 543.818C995.994 540.352 997.346 535.533 997.346 529.362V524.023ZM1031.22 530.991H1016.55V552H1012.25V501.523H1028.65C1034.04 501.523 1038.24 502.829 1041.27 505.441C1044.3 508.053 1045.81 511.704 1045.81 516.396C1045.81 519.632 1044.86 522.486 1042.97 524.959C1041.07 527.432 1038.53 529.142 1035.34 530.09L1047.96 551.549V552H1043.42L1031.22 530.991ZM1016.55 527.351H1029.62C1033.2 527.351 1036.08 526.334 1038.25 524.3C1040.43 522.266 1041.51 519.632 1041.51 516.396C1041.51 512.837 1040.38 510.075 1038.12 508.11C1035.85 506.146 1032.67 505.164 1028.58 505.164H1016.55V527.351ZM1063.08 501.523L1081.69 546.072L1100.38 501.523H1106.06V552H1101.8V530.021L1102.15 507.486L1083.36 552H1080.06L1061.34 507.66L1061.69 529.882V552H1057.43V501.523H1063.08ZM1146.73 537.855H1123.81L1118.61 552H1114.14L1133.24 501.523H1137.3L1156.4 552H1151.97L1146.73 537.855ZM1125.13 534.215H1145.38L1135.26 506.724L1125.13 534.215ZM1192.42 539.589C1192.42 536.792 1191.44 534.585 1189.48 532.967C1187.51 531.326 1183.92 529.778 1178.69 528.322C1173.47 526.843 1169.66 525.236 1167.25 523.503C1163.83 521.053 1162.12 517.84 1162.12 513.865C1162.12 510.006 1163.71 506.874 1166.87 504.47C1170.06 502.043 1174.13 500.83 1179.08 500.83C1182.43 500.83 1185.42 501.477 1188.05 502.771C1190.71 504.066 1192.77 505.868 1194.23 508.18C1195.68 510.491 1196.41 513.068 1196.41 515.911H1192.11C1192.11 512.467 1190.93 509.705 1188.57 507.625C1186.22 505.522 1183.05 504.47 1179.08 504.47C1175.22 504.47 1172.14 505.337 1169.85 507.07C1167.57 508.781 1166.42 511.022 1166.42 513.796C1166.42 516.361 1167.45 518.453 1169.51 520.071C1171.56 521.689 1174.86 523.122 1179.39 524.37C1183.92 525.595 1187.35 526.877 1189.68 528.218C1192.02 529.535 1193.77 531.118 1194.95 532.967C1196.13 534.816 1196.72 537 1196.72 539.52C1196.72 543.495 1195.13 546.684 1191.94 549.088C1188.77 551.492 1184.59 552.693 1179.39 552.693C1175.83 552.693 1172.56 552.058 1169.58 550.787C1166.62 549.515 1164.36 547.736 1162.82 545.448C1161.29 543.16 1160.53 540.536 1160.53 537.578H1164.79C1164.79 541.137 1166.12 543.945 1168.78 546.002C1171.44 548.059 1174.97 549.088 1179.39 549.088C1183.32 549.088 1186.47 548.221 1188.85 546.488C1191.23 544.754 1192.42 542.455 1192.42 539.589ZM1211.14 552H1206.88V501.523H1211.14V552ZM1246.4 531.442V552H1242.14V501.523H1259.33C1264.58 501.523 1268.72 502.864 1271.74 505.545C1274.79 508.226 1276.32 511.912 1276.32 516.604C1276.32 521.342 1274.85 525.005 1271.92 527.594C1269 530.159 1264.77 531.442 1259.23 531.442H1246.4ZM1246.4 527.836H1259.33C1263.47 527.836 1266.62 526.854 1268.8 524.89C1270.97 522.925 1272.06 520.186 1272.06 516.673C1272.06 513.183 1270.97 510.41 1268.8 508.353C1266.65 506.273 1263.58 505.21 1259.61 505.164H1246.4V527.836ZM1313.76 527.802H1290.15V548.395H1317.3V552H1285.89V501.523H1317.12V505.164H1290.15V524.196H1313.76V527.802ZM1363.89 552H1359.63L1330.61 508.804V552H1326.31V501.523H1330.61L1359.66 544.754V501.523H1363.89V552ZM1413.15 546.002C1411.67 548.106 1409.35 549.747 1406.19 550.925C1403.04 552.104 1399.52 552.693 1395.61 552.693C1391.66 552.693 1388.15 551.746 1385.07 549.851C1382 547.955 1379.62 545.274 1377.93 541.808C1376.24 538.341 1375.39 534.366 1375.37 529.882V523.503C1375.37 516.5 1377.13 510.976 1380.67 506.932C1384.21 502.864 1388.96 500.83 1394.92 500.83C1400.12 500.83 1404.3 502.159 1407.47 504.817C1410.63 507.452 1412.52 511.092 1413.12 515.737H1408.85C1408.23 512.039 1406.72 509.243 1404.31 507.348C1401.93 505.429 1398.81 504.47 1394.95 504.47C1390.24 504.47 1386.51 506.146 1383.76 509.497C1381.01 512.848 1379.63 517.575 1379.63 523.676V529.639C1379.63 533.476 1380.28 536.873 1381.57 539.832C1382.89 542.767 1384.76 545.043 1387.19 546.661C1389.64 548.279 1392.45 549.088 1395.61 549.088C1399.29 549.088 1402.44 548.51 1405.08 547.354C1406.79 546.592 1408.06 545.702 1408.89 544.685V531.65H1395.33V528.044H1413.15V546.002ZM1453.13 527.802H1429.52V548.395H1456.66V552H1425.25V501.523H1456.49V505.164H1429.52V524.196H1453.13V527.802ZM1469.97 548.395H1494.9V552H1465.68V501.523H1469.97V548.395ZM1538.13 529.5C1538.13 534.146 1537.32 538.225 1535.71 541.738C1534.11 545.251 1531.82 547.955 1528.84 549.851C1525.86 551.746 1522.42 552.693 1518.51 552.693C1512.62 552.693 1507.86 550.59 1504.23 546.384C1500.6 542.154 1498.78 536.457 1498.78 529.292V524.092C1498.78 519.493 1499.59 515.425 1501.21 511.889C1502.85 508.33 1505.16 505.603 1508.14 503.708C1511.13 501.789 1514.56 500.83 1518.44 500.83C1522.32 500.83 1525.74 501.766 1528.7 503.638C1531.68 505.51 1533.98 508.157 1535.6 511.577C1537.22 514.998 1538.06 518.961 1538.13 523.468V529.5ZM1533.87 524.023C1533.87 517.944 1532.49 513.183 1529.74 509.74C1526.99 506.296 1523.22 504.574 1518.44 504.574C1513.75 504.574 1510 506.308 1507.21 509.774C1504.43 513.218 1503.05 518.037 1503.05 524.231V529.5C1503.05 535.486 1504.43 540.236 1507.21 543.749C1509.98 547.239 1513.75 548.984 1518.51 548.984C1523.34 548.984 1527.11 547.262 1529.81 543.818C1532.52 540.352 1533.87 535.533 1533.87 529.362V524.023ZM1553.18 548.395H1578.1V552H1548.88V501.523H1553.18V548.395ZM1614.26 537.855H1591.35L1586.15 552H1581.67L1600.78 501.523H1604.83L1623.94 552H1619.5L1614.26 537.855ZM1592.66 534.215H1612.91L1602.79 506.724L1592.66 534.215ZM1658.64 537.855H1635.72L1630.52 552H1626.05L1645.15 501.523H1649.21L1668.31 552H1663.87L1658.64 537.855ZM1637.04 534.215H1657.29L1647.16 506.724L1637.04 534.215ZM1713.34 552H1709.08L1680.06 508.804V552H1675.76V501.523H1680.06L1709.11 544.754V501.523H1713.34V552ZM1754.81 526.935L1747.7 533.938V552H1743.44V501.523H1747.7V528.738L1773.56 501.523H1778.94L1757.79 523.988L1780.56 552H1775.36L1754.81 526.935ZM1816.1 527.802H1792.49V548.395H1819.64V552H1788.23V501.523H1819.46V505.164H1792.49V524.196H1816.1V527.802ZM1865.09 546.002C1863.61 548.106 1861.28 549.747 1858.12 550.925C1854.97 552.104 1851.45 552.693 1847.54 552.693C1843.59 552.693 1840.08 551.746 1837 549.851C1833.93 547.955 1831.55 545.274 1829.86 541.808C1828.18 538.341 1827.32 534.366 1827.3 529.882V523.503C1827.3 516.5 1829.07 510.976 1832.6 506.932C1836.14 502.864 1840.89 500.83 1846.85 500.83C1852.05 500.83 1856.23 502.159 1859.4 504.817C1862.57 507.452 1864.45 511.092 1865.05 515.737H1860.79C1860.16 512.039 1858.65 509.243 1856.25 507.348C1853.86 505.429 1850.74 504.47 1846.88 504.47C1842.17 504.47 1838.44 506.146 1835.69 509.497C1832.94 512.848 1831.56 517.575 1831.56 523.676V529.639C1831.56 533.476 1832.21 536.873 1833.5 539.832C1834.82 542.767 1836.69 545.043 1839.12 546.661C1841.57 548.279 1844.38 549.088 1847.54 549.088C1851.22 549.088 1854.37 548.51 1857.01 547.354C1858.72 546.592 1859.99 545.702 1860.82 544.685V531.65H1847.27V528.044H1865.09V546.002ZM1882.38 552H1878.12V501.523H1882.38V552ZM1923.99 537.855H1901.07L1895.87 552H1891.4L1910.5 501.523H1914.56L1933.66 552H1929.22L1923.99 537.855ZM1902.39 534.215H1922.63L1912.51 506.724L1902.39 534.215ZM1970.86 505.164H1953.56V552H1949.29V505.164H1932.03V501.523H1970.86V505.164ZM2003.51 537.855H1980.6L1975.4 552H1970.93L1990.03 501.523H1994.08L2013.19 552H2008.75L2003.51 537.855ZM1981.92 534.215H2002.16L1992.04 506.724L1981.92 534.215ZM2058.22 552H2053.96L2024.94 508.804V552H2020.64V501.523H2024.94L2053.99 544.754V501.523H2058.22V552Z" fill="black"/>
<rect x="97" y="171" width="429" height="219.271" rx="40" fill="#1E88E5"/>
<path d="M212 389.729H410V511.458C410 533.549 392.091 551.458 370 551.458H252C229.909 551.458 212 533.549 212 511.458V389.729Z" fill="#FFD026"/>
<path d="M212 268C212 245.909 229.909 228 252 228H370C392.091 228 410 245.909 410 268V389.729H212V268Z" fill="#16A75C"/>
</svg>
