<?xml version="1.0" encoding="utf-8"?>
<!-- Generator: Adobe Illustrator 23.0.3, SVG Export Plug-In . SVG Version: 6.00 Build 0)  -->
<svg version="1.1" id="Layer_1" xmlns:xodm="http://www.corel.com/coreldraw/odm/2003"
	 xmlns="http://www.w3.org/2000/svg" xmlns:xlink="http://www.w3.org/1999/xlink" x="0px" y="0px" width="94.2px" height="24px"
	 viewBox="0 0 94.2 24" style="enable-background:new 0 0 94.2 24;" xml:space="preserve">
<style type="text/css">
	.st0{fill-rule:evenodd;clip-rule:evenodd;fill:#FFFFFF;}
</style>
<g>
	<path class="st0" d="M30.4,12c-0.3-0.2-0.6-0.2-1-0.2c-0.3,0-0.7,0.1-1,0.2c-0.3,0.2-0.5,0.4-0.7,0.7c-0.2,0.3-0.3,0.7-0.3,1.1v3.7
		l0,0c0,0.4,0.1,0.7,0.3,1.1c0.2,0.3,0.4,0.5,0.7,0.7c0.3,0.2,0.6,0.2,1,0.2c0.4,0,0.7-0.1,1-0.2c0.3-0.2,0.5-0.4,0.7-0.7
		c0.2-0.3,0.3-0.7,0.3-1.1v-3.7c0-0.4-0.1-0.7-0.3-1.1C30.9,12.4,30.7,12.1,30.4,12z"/>
	<path class="st0" d="M67.4,16.3h-1.8l0,0v3.1h1.7c0.4,0,1-0.1,1.3-0.4c0.3-0.3,0.4-0.8,0.4-1.2c0-0.4-0.1-0.8-0.4-1
		C68.3,16.4,67.9,16.3,67.4,16.3z"/>
	<path class="st0" d="M68.1,13.9c0.2-0.3,0.3-0.6,0.3-0.9c0-0.3-0.1-0.7-0.3-0.9c-0.2-0.2-0.7-0.3-1-0.3h-1.5v2.5h1.5
		C67.5,14.3,67.8,14.2,68.1,13.9z"/>
	<path class="st0" d="M93.3,8.2c-0.7-0.7-1.5-1-2.5-1c-0.9,0-1.8,0.3-2.5,1c-0.3,0.3-0.6,0.7-0.7,1.1l-0.4-0.6
		c-0.6-1-1.7-1.5-2.9-1.5c-0.8,0-1.5,0.3-2.1,0.7c-0.6-0.5-1.4-0.7-2.2-0.7c-0.9,0-1.8,0.3-2.4,0.9c-0.3,0.3-0.5,0.6-0.6,0.9
		c-0.2-0.3-0.4-0.6-0.6-0.9c-0.7-0.6-1.5-0.9-2.4-0.9c-0.9,0-1.8,0.3-2.4,0.9c-0.1,0.1-0.2,0.2-0.3,0.3c-1.2-0.9-2.6-1.2-4.1-1.2
		h-2.6c-0.8,0-1.6,0.2-2.2,0.7c-0.6-0.5-1.4-0.8-2.3-0.8c-0.9,0-1.8,0.3-2.4,0.9c-0.2,0.2-0.4,0.5-0.6,0.8c-0.2-0.3-0.3-0.5-0.6-0.8
		c-0.7-0.6-1.5-0.9-2.4-0.9c-0.7,0-1.4,0.2-2,0.6c-0.6-0.3-1.2-0.5-1.9-0.5h-4.9c-0.9,0-1.8,0.3-2.4,0.9c-0.7,0.7-1,1.5-1,2.5V17
		c-0.1,0-0.2,0-0.3,0H40v-6.4c0-0.9-0.3-1.8-1-2.5c-0.7-0.6-1.5-0.9-2.4-0.9c-0.9,0-1.8,0.3-2.4,0.9c-0.2,0.2-0.3,0.3-0.4,0.5
		c-0.3-0.3-0.6-0.5-1-0.7c-1-0.6-2.2-0.9-3.4-0.9c-1.2,0-2.3,0.3-3.4,0.9c-0.5,0.3-1,0.7-1.4,1.1c-0.1-0.1-0.3-0.3-0.5-0.4
		c-0.7-0.5-1.4-0.9-2.2-1.2c-0.8-0.3-1.6-0.4-2.4-0.4c-1,0-1.9,0.2-2.8,0.6C16.4,8,16,8.2,15.7,8.5c-0.1-0.1-0.2-0.2-0.3-0.3
		c-0.3-0.3-0.6-0.5-1-0.6c0.2-0.1,0.4-0.2,0.6-0.3c3.9-1.7,3.3-4.6,3.5-7.2c-7.1,1.6-6.1,5.3-5.9,7.1c0,0.1,0,0.1,0,0.2
		c-0.7,0.1-1.4,0.4-2,0.9c-0.1,0.1-0.1,0.1-0.2,0.2C9.8,8,9.2,7.7,8.6,7.5C7.8,7.3,7,7.2,6.2,7.2c-1,0-1.9,0.2-2.8,0.6
		c-0.9,0.4-1.7,1.1-2.3,2c-0.6,0.9-0.9,2-0.9,3.1c0,1,0.3,2,0.8,2.8c0.2,0.4,0.5,0.7,0.8,1c-0.1,0.1-0.2,0.1-0.3,0.2
		c-0.4,0.3-0.8,0.7-1.1,1.2C0.2,18.6,0,19.2,0,19.8C0,21,0.6,22,1.6,22.6C3,23.5,4.5,24,6.1,24c1.1,0,2.1-0.2,3.1-0.7
		c0.4-0.2,0.8-0.4,1.1-0.7c0.1,0.1,0.2,0.2,0.3,0.4c0.7,0.6,1.5,0.9,2.4,0.9c0.9,0,1.8-0.3,2.4-0.9c0,0,0.1-0.1,0.1-0.1
		c1.2,0.7,2.6,1.1,4,1.1c1.1,0,2.1-0.2,3.1-0.7c0.7-0.4,1.4-0.9,1.9-1.5c0.5,0.5,1,1,1.6,1.3c1,0.6,2.2,0.9,3.3,0.9
		c1.2,0,2.3-0.3,3.3-0.9c0.4-0.2,0.7-0.5,1-0.8c0.1,0.1,0.2,0.2,0.2,0.3c0.7,0.8,1.6,1.1,2.6,1.1h4.9c0.6,0,1.3-0.1,1.9-0.5
		c0.5,0.3,1.1,0.5,1.8,0.5h5c0.7,0,1.3-0.2,1.8-0.5c0.6,0.4,1.3,0.6,2,0.6c0.9,0,1.8-0.3,2.4-0.9c0.2-0.2,0.4-0.5,0.6-0.8
		c0.2,0.3,0.3,0.5,0.6,0.8c0.7,0.6,1.5,0.9,2.4,0.9c0.8,0,1.6-0.3,2.3-0.8l0,0c0.6,0.5,1.4,0.7,2.2,0.7h3c1.7,0,3.3-0.4,4.5-1.6
		c0.1-0.1,0.2-0.2,0.3-0.3c0.4,0.5,0.9,0.8,1.4,1.2c1,0.6,2.1,0.9,3.2,0.9c1.2,0,2.3-0.3,3.4-0.9c0.4-0.2,0.8-0.5,1.1-0.8
		c0.6,1.1,1.7,1.6,3,1.6c0.9,0,1.8-0.3,2.5-1c0.3-0.3,0.6-0.7,0.7-1.2l0.4,0.7c0.6,1,1.7,1.5,2.9,1.5c0.8,0,1.6-0.3,2.2-0.8
		c0.7-0.6,1.1-1.5,1.1-2.4v-10C94.2,9.7,93.9,8.9,93.3,8.2z M9.6,20c-0.4,0.6-0.9,1-1.5,1.3c-0.6,0.3-1.3,0.5-2.1,0.5
		c-1.2,0-2.3-0.4-3.3-1c-0.4-0.2-0.6-0.5-0.6-1c0-0.2,0.1-0.4,0.2-0.6c0.1-0.2,0.2-0.3,0.4-0.5c0.2-0.1,0.3-0.2,0.5-0.2
		c0.1,0,0.2,0,0.3,0.1c0.1,0,0.3,0.1,0.4,0.2c0.3,0.2,0.6,0.3,1,0.5c0.4,0.1,0.8,0.2,1.1,0.2c0.3,0,0.5,0,0.8-0.2
		c0.2-0.1,0.4-0.2,0.5-0.4c0.1-0.2,0.2-0.4,0.2-0.6c0-0.3-0.1-0.5-0.2-0.7c-0.2-0.2-0.4-0.4-0.7-0.5c-0.4-0.2-0.9-0.4-1.3-0.6
		C5,16.1,4.5,15.9,4,15.5c-0.4-0.3-0.8-0.7-1.1-1.1c-0.3-0.5-0.4-1-0.4-1.6l0,0c0-0.7,0.1-1.3,0.5-1.9c0.3-0.5,0.8-0.9,1.4-1.2
		c0.6-0.3,1.2-0.4,1.9-0.4c0.6,0,1.2,0.1,1.7,0.3c0.6,0.2,1.1,0.5,1.6,0.9c0.3,0.2,0.4,0.5,0.4,0.8c0,0.2-0.1,0.4-0.2,0.6
		c-0.1,0.2-0.2,0.3-0.4,0.4c-0.2,0.1-0.4,0.2-0.6,0.2c-0.1,0-0.3,0-0.4-0.1c-0.1-0.1-0.3-0.1-0.4-0.2c-0.3-0.2-0.5-0.3-0.8-0.4
		c-0.3-0.1-0.6-0.1-0.9-0.1c-0.4,0-0.7,0.1-1,0.3c-0.3,0.2-0.4,0.5-0.4,0.8c0,0.2,0,0.3,0.2,0.5c0.1,0.2,0.3,0.3,0.5,0.4
		C5.7,13.8,6,14,6.2,14.1c0.2,0.1,0.4,0.2,0.5,0.2c0.6,0.3,1.2,0.6,1.8,1C9,15.6,9.4,16,9.7,16.4c0.3,0.5,0.4,1.2,0.4,1.8
		C10.1,18.9,9.9,19.5,9.6,20z M16.9,1.9c-1.3,1.7-2.5,3.6-3.5,5.4c-0.1,0-0.3,0-0.4,0C14,5.4,15.2,3.4,16.9,1.9z M13.8,21.4
		c-0.2,0.2-0.6,0.3-0.9,0.3c-0.3,0-0.6-0.1-0.9-0.3c-0.2-0.2-0.3-0.6-0.3-0.9v-9.9c0-0.3,0.1-0.6,0.3-0.9c0.2-0.2,0.6-0.3,0.9-0.3
		c0.3,0,0.6,0.1,0.9,0.3c0.2,0.2,0.3,0.5,0.3,0.9v9.9l0,0C14.2,20.8,14.1,21.1,13.8,21.4z M23,20c-0.4,0.6-0.9,1-1.5,1.3
		c-0.6,0.3-1.3,0.5-2.1,0.5c-1.2,0-2.3-0.4-3.3-1c-0.4-0.2-0.6-0.5-0.6-1c0-0.2,0.1-0.4,0.2-0.6c0.1-0.2,0.2-0.3,0.4-0.5
		c0.2-0.1,0.3-0.2,0.5-0.2c0.1,0,0.2,0,0.3,0.1c0.1,0,0.3,0.1,0.4,0.2c0.3,0.2,0.6,0.3,1,0.5c0.4,0.1,0.8,0.2,1.1,0.2
		c0.3,0,0.5,0,0.8-0.2c0.2-0.1,0.4-0.2,0.5-0.4c0.1-0.2,0.2-0.4,0.2-0.6c0-0.3-0.1-0.5-0.2-0.7c-0.2-0.2-0.4-0.4-0.7-0.5
		c-0.4-0.2-0.9-0.4-1.3-0.6c-0.5-0.2-1.1-0.5-1.6-0.8c-0.4-0.3-0.8-0.7-1.1-1.1c-0.3-0.5-0.4-1-0.4-1.6l0,0c0-0.7,0.1-1.3,0.5-1.9
		c0.3-0.5,0.8-0.9,1.4-1.2c0.6-0.3,1.2-0.4,1.9-0.4c0.6,0,1.2,0.1,1.7,0.3c0.6,0.2,1.1,0.5,1.6,0.9c0.3,0.2,0.4,0.5,0.4,0.8
		c0,0.2-0.1,0.4-0.2,0.6c-0.1,0.2-0.2,0.3-0.4,0.4c-0.2,0.1-0.4,0.2-0.6,0.2c-0.1,0-0.3,0-0.4-0.1c-0.1-0.1-0.3-0.1-0.4-0.2
		c-0.3-0.2-0.5-0.3-0.8-0.4c-0.3-0.1-0.6-0.1-0.9-0.1c-0.4,0-0.7,0.1-1,0.3c-0.3,0.2-0.4,0.5-0.4,0.8c0,0.2,0,0.3,0.2,0.5
		c0.1,0.2,0.3,0.3,0.5,0.4c0.3,0.2,0.6,0.3,0.9,0.4c0.2,0.1,0.4,0.2,0.5,0.2c0.6,0.3,1.2,0.6,1.8,1c0.4,0.3,0.8,0.7,1.1,1.1
		c0.3,0.5,0.4,1.2,0.4,1.8C23.6,18.9,23.4,19.5,23,20z M33.8,17.5c0,0.8-0.2,1.5-0.6,2.1c-0.4,0.7-0.9,1.2-1.6,1.5
		c-0.7,0.4-1.4,0.6-2.2,0.6c-0.8,0-1.5-0.2-2.2-0.6c-0.7-0.4-1.2-0.9-1.5-1.6c-0.4-0.7-0.6-1.4-0.6-2.1v-3.9c0-0.8,0.2-1.5,0.5-2.1
		c0.4-0.7,0.9-1.2,1.5-1.6c0.7-0.4,1.4-0.6,2.2-0.6c0.8,0,1.6,0.2,2.2,0.6c0.7,0.4,1.2,0.9,1.5,1.6c0.4,0.7,0.6,1.4,0.6,2.1V17.5z
		 M42.5,21.3c-0.2,0.2-0.6,0.3-0.9,0.3h-5c-0.3,0-0.7-0.1-0.9-0.4c-0.2-0.3-0.3-0.6-0.3-1v-9.6c0-0.3,0.1-0.6,0.3-0.9
		c0.2-0.2,0.6-0.3,0.9-0.3c0.3,0,0.6,0.1,0.9,0.3c0.2,0.2,0.3,0.5,0.3,0.9v8.6h3.8c0.3,0,0.6,0.1,0.9,0.3c0.2,0.2,0.3,0.6,0.3,0.9
		C42.8,20.8,42.7,21.1,42.5,21.3z M50.2,14.3c0.3,0,0.6,0.1,0.9,0.3c0.2,0.2,0.3,0.5,0.3,0.8c0,0.3-0.1,0.6-0.3,0.8
		c-0.2,0.2-0.6,0.3-0.9,0.3h-3.7v2.7h3.7c0.3,0,0.6,0.1,0.9,0.3c0.2,0.2,0.3,0.6,0.3,0.9c0,0.3-0.1,0.6-0.3,0.9
		c-0.2,0.2-0.6,0.3-0.9,0.3h-5c-0.3,0-0.6-0.1-0.8-0.3c-0.2-0.2-0.3-0.6-0.3-0.9v-9.7c0-0.3,0.1-0.6,0.3-0.9
		c0.2-0.2,0.6-0.3,0.9-0.3h4.9c0.3,0,0.6,0.1,0.9,0.3c0.2,0.2,0.3,0.6,0.3,0.9c0,0.3-0.1,0.6-0.3,0.9c-0.2,0.2-0.5,0.3-0.9,0.3h-3.7
		v2.4H50.2z M61.2,20.5c0,0.3-0.1,0.6-0.3,0.9c-0.2,0.2-0.6,0.3-0.9,0.3c-0.3,0-0.6-0.1-0.9-0.3c-0.2-0.2-0.3-0.5-0.3-0.9v-3.7h-3.6
		v3.7c0,0.3-0.1,0.6-0.3,0.9c-0.2,0.2-0.6,0.3-0.9,0.3c-0.3,0-0.6-0.1-0.9-0.3c-0.2-0.2-0.3-0.6-0.3-0.9v-9.9c0-0.3,0.1-0.6,0.3-0.9
		c0.2-0.2,0.6-0.3,0.9-0.3c0.3,0,0.6,0.1,0.9,0.3c0.2,0.2,0.3,0.5,0.3,0.9v3.8h3.6v-3.8c0-0.3,0.1-0.6,0.3-0.9
		c0.2-0.2,0.6-0.3,0.9-0.3c0.3,0,0.6,0.1,0.9,0.3c0.2,0.2,0.3,0.5,0.3,0.9V20.5z M70.4,20.7c-0.8,0.8-1.9,1-3,1h-3
		c-0.3,0-0.6-0.1-0.9-0.3c-0.2-0.2-0.3-0.5-0.3-0.9v-9.7c0-0.3,0.1-0.6,0.3-0.9c0.2-0.2,0.6-0.3,0.9-0.3h2.6c0.9,0,2,0.1,2.8,0.8
		c0.7,0.6,0.9,1.5,0.9,2.4c0,0.9-0.3,1.7-1.1,2.3l0,0c0.5,0.2,0.9,0.5,1.2,1c0.3,0.6,0.5,1.2,0.5,1.9C71.4,18.9,71.2,19.9,70.4,20.7
		z M81.3,17.5c0,0.8-0.2,1.5-0.5,2.1c-0.4,0.7-0.9,1.2-1.5,1.5c-0.7,0.4-1.4,0.6-2.2,0.6l0,0c-0.7,0-1.5-0.2-2.1-0.6
		c-0.6-0.4-1.2-0.9-1.6-1.6c-0.4-0.6-0.6-1.3-0.6-2.1v-6.9c0-0.3,0.1-0.6,0.3-0.9c0.2-0.2,0.6-0.3,0.9-0.3c0.3,0,0.6,0.1,0.9,0.3
		c0.2,0.2,0.3,0.5,0.3,0.9v6.8c0,0.4,0.1,0.7,0.3,1.1c0.2,0.3,0.4,0.5,0.7,0.7c0.3,0.2,0.6,0.2,1,0.2s0.7-0.1,1-0.2
		c0.3-0.2,0.5-0.4,0.7-0.7c0.2-0.3,0.2-0.7,0.2-1.1v-6.8c0-0.3,0.1-0.6,0.3-0.9c0.2-0.2,0.6-0.3,0.9-0.3c0.3,0,0.6,0.1,0.9,0.3
		c0.2,0.2,0.3,0.5,0.3,0.9V17.5z M92,20.7c0,0.3-0.1,0.6-0.3,0.8c-0.2,0.2-0.5,0.3-0.7,0.3c-0.4,0-0.8-0.1-1-0.5l-4.3-6.8v0v6.1
		c0,0.3-0.1,0.7-0.3,0.9c-0.2,0.2-0.6,0.3-0.9,0.3c-0.8,0-1.2-0.4-1.2-1.2v-9.9c0-0.3,0.1-0.6,0.3-0.8c0.2-0.2,0.5-0.3,0.8-0.3
		c0.4,0,0.8,0.1,1,0.5l4.2,6.6v-5.9c0-0.3,0.1-0.6,0.3-0.9c0.2-0.2,0.6-0.3,0.9-0.3c0.3,0,0.6,0.1,0.9,0.3c0.2,0.2,0.3,0.6,0.3,0.9
		V20.7z"/>
</g>
</svg>
